<svg width="37" height="33" viewBox="0 0 37 33" fill="none" xmlns="http://www.w3.org/2000/svg">
<path d="M18.9084 0C21.4021 0 23.7454 0.432143 25.9382 1.29643C28.131 2.16071 30.0443 3.33929 31.6782 4.83214C33.312 6.325 34.6019 8.07321 35.5478 10.0768C36.4937 12.0804 36.9667 14.2214 36.9667 16.5C36.9667 18.7786 36.4937 20.9196 35.5478 22.9232C34.6019 24.9268 33.312 26.675 31.6782 28.1679C30.0443 29.6607 28.131 30.8393 25.9382 31.7036C23.7454 32.5679 21.4021 33 18.9084 33C16.4146 33 14.0713 32.5679 11.8785 31.7036C9.68572 30.8393 7.7724 29.6607 6.13855 28.1679C4.5047 26.675 3.21482 24.9268 2.26891 22.9232C1.32299 20.9196 0.850037 18.7786 0.850037 16.5C0.850037 14.2214 1.32299 12.0804 2.26891 10.0768C3.21482 8.07321 4.5047 6.325 6.13855 4.83214C7.7724 3.33929 9.68572 2.16071 11.8785 1.29643C14.0713 0.432143 16.4146 0 18.9084 0ZM8.76131 20.7821L14.1788 17.2464L8.76131 13.7107V20.7821ZM29.0554 22.3536L22.434 18.0321L18.9084 20.35L15.3397 18.0321L8.76131 22.3536V24.75H29.0554V22.3536ZM29.0554 13.7107L23.6379 17.2464L29.0554 20.7821V13.7107ZM29.0554 8.25H8.76131V10.6464L18.9084 17.2464L29.0554 10.6464V8.25Z" fill="#FF0408"/>
</svg>
